<?xml version="1.0" encoding="utf-8"?>
<!-- Generator: Adobe Illustrator 25.4.1, SVG Export Plug-In . SVG Version: 6.00 Build 0)  -->
<svg version="1.1" id="Layer_1" xmlns="http://www.w3.org/2000/svg" xmlns:xlink="http://www.w3.org/1999/xlink" x="0px" y="0px"
	 viewBox="0 0 288 217" style="enable-background:new 0 0 288 217;" xml:space="preserve">
<style type="text/css">
	.st0{fill-rule:evenodd;clip-rule:evenodd;fill:#FFFFFF;}
	.st1{fill-rule:evenodd;clip-rule:evenodd;}
	.st2{filter:url(#Adobe_OpacityMaskFilter);}
	.st3{mask:url(#mask-2_00000154386163674479735890000012599322482685310637_);fill-rule:evenodd;clip-rule:evenodd;}
</style>
<g id="Page-1">
	<g id="HOMEPAGE-1312px" transform="translate(-832.000000, -207.000000)">
		<g id="Leadspace" transform="translate(0.000000, 48.000000)">
			<g id="Bee" transform="translate(832.000000, 159.000000)">
				<polygon id="Fill-1" class="st0" points="101.8,119 186.2,119 186.2,98 101.8,98 				"/>
				<polygon id="Fill-2" class="st0" points="101.8,161.2 186.2,161.2 186.2,140.1 101.8,140.1 				"/>
				<g id="Bees_x27_-body" transform="translate(0.000000, 0.950000)">
					<path id="Fill-3" class="st1" d="M250.7,99.3c11.6,4.7,19.8,16,19.8,29.3c0,17.5-14.2,31.6-31.6,31.6
						c-14.2,0-26.2-9.3-30.2-22.2l-22.5-67.4L250.7,99.3z"/>
					<path id="Fill-5" class="st1" d="M144,54.8c15.6,0,29.2,8.5,36.5,21.1h-73C114.8,63.3,128.4,54.8,144,54.8"/>
					<path id="Fill-7" class="st1" d="M144,202.4c-15.6,0-29.2-8.5-36.5-21.1h73C173.2,193.9,159.6,202.4,144,202.4"/>
					<path id="Fill-9" class="st1" d="M149.3,31.1c0,10.2,8.3,18.4,18.4,18.4s18.4-8.3,18.4-18.4s-8.3-18.4-18.4-18.4
						S149.3,20.9,149.3,31.1"/>
					<path id="Fill-11" class="st1" d="M138.7,31.1c0,10.2-8.3,18.4-18.4,18.4s-18.4-8.3-18.4-18.4s8.3-18.4,18.4-18.4
						S138.7,20.9,138.7,31.1"/>
					<g id="Group-15" transform="translate(0.000000, 66.000000)">
						<g id="Clip-14">
						</g>
						<defs>
							<filter id="Adobe_OpacityMaskFilter" filterUnits="userSpaceOnUse" x="17.5" y="4.7" width="84.3" height="89.6">
								<feColorMatrix  type="matrix" values="1 0 0 0 0  0 1 0 0 0  0 0 1 0 0  0 0 0 1 0"/>
							</filter>
						</defs>
						
							<mask maskUnits="userSpaceOnUse" x="17.5" y="4.7" width="84.3" height="89.6" id="mask-2_00000154386163674479735890000012599322482685310637_">
							<g class="st2">
								<polygon id="path-1_00000160904127475194566710000010937688971349908621_" class="st0" points="17.5,4.7 101.8,4.7 
									101.8,94.3 17.5,94.3 								"/>
							</g>
						</mask>
						<path id="Fill-13" class="st3" d="M37.3,33.3c-11.6,4.7-19.8,16-19.8,29.3c0,17.5,14.2,31.6,31.6,31.6
							c14.2,0,26.2-9.3,30.2-22.2l22.5-67.4L37.3,33.3z"/>
					</g>
				</g>
			</g>
		</g>
	</g>
</g>
</svg>
